# xmcd
#
# Track frame offsets:
#	150
#	22501
#	33985
#	49654
#
# Disc length: 870 seconds
#
# Revision: 1
# Processed by: cddbd v1.4PL0 Copyright (c) Steve Scherf et al.
# Submitted via: audiograbber 1.82.02
#
DISCID=1f036404
DTITLE=Maxwell Street - Movin' Along (EP)
DYEAR=2002
DGENRE=Blues
TTITLE0=Movin' Along
TTITLE1=Somewhere In My Dreams
TTITLE2=Bad Mood Blues
TTITLE3=Just Can't Lose The Blues
EXTD=
EXTT0=
EXTT1=
EXTT2=
EXTT3=
PLAYORDER=
